<?xml version="1.0" encoding="UTF-8"?>
<svg width="163px" height="56px" viewBox="0 0 163 56" version="1.1" xmlns="http://www.w3.org/2000/svg" xmlns:xlink="http://www.w3.org/1999/xlink">
    <title>App Store (ID)</title>
    <g id="Page-1" stroke="none" stroke-width="1" fill="none" fill-rule="evenodd">
        <g id="Desktop-HD:-Main-Page" transform="translate(-962.000000, -2696.000000)" fill-rule="nonzero">
            <g id="Footer" transform="translate(0.000000, 2404.000000)">
                <g id="App-Store-(ID)" transform="translate(962.000000, 292.000000)">
                    <g id="Group" transform="translate(0.000000, 0.030361)">
                        <g id="Path">
                            <path d="M150.019697,1.38343748e-16 L12.9876315,1.38343748e-16 C12.4881323,1.38343748e-16 11.9946266,1.38343748e-16 11.4964488,0.00292874048 C11.0794276,0.00567873154 10.6657301,0.0136674556 10.2447042,0.0203911837 C9.33004142,0.0312561284 8.41752963,0.112483242 7.51509873,0.263366644 C6.61393537,0.417534756 5.74100162,0.708185591 4.92582159,1.12548884 C4.11163856,1.54632233 3.36769623,2.0931523 2.72098308,2.74614108 C2.0708748,3.39729358 1.52895935,4.14993778 1.11607477,4.97513258 C0.702050661,5.79868494 0.414965003,6.68119719 0.264733182,7.59218908 C0.113073067,8.50203036 0.0314633795,9.42236387 0.0206365202,10.3449301 C0.00799580024,10.7665038 0.00666089663,11.1894799 0,11.6111085 L0,43.3931127 C0.00666089663,43.8200488 0.00799580024,44.2336475 0.0206365202,44.6607211 C0.0314666996,45.5832416 0.113076388,46.5035292 0.264733182,47.4133247 C0.414550168,48.3248491 0.7016528,49.207868 1.11607477,50.0317286 C1.52877188,50.8542549 2.07076353,51.6038521 2.72098308,52.2513839 C3.3652441,52.9072761 4.10966729,53.4544781 4.92582159,53.8720912 C5.74099543,54.2905113 6.61383507,54.5828921 7.51509873,54.7394383 C8.41768304,54.8891131 9.33010099,54.9703732 10.2447042,54.9825376 C10.6657301,54.9918875 11.0794276,54.99725 11.4964488,54.99725 C11.994613,55 12.4881596,55 12.9876315,55 L150.019697,55 C150.509252,55 151.006708,55 151.496264,54.99725 C151.91131,54.99725 152.336981,54.9918875 152.752027,54.9825376 C153.664901,54.9710202 154.575601,54.8897549 155.47632,54.7394383 C156.380491,54.5817901 157.25646,54.2894867 158.075568,53.8720912 C158.890986,53.4542363 159.634722,52.9070493 160.278431,52.2513839 C160.926973,51.601316 161.470122,50.8522672 161.887944,50.0317286 C162.299256,49.2072686 162.583625,48.3243204 162.731248,47.4133247 C162.883148,46.5034043 162.967654,45.5833215 162.984063,44.6607211 C162.989375,44.2336475 162.989375,43.8200488 162.989375,43.3931127 C163,42.8935768 163,42.396791 163,41.8891426 L163,13.1123149 C163,12.6087778 163,12.1092694 162.989375,11.6111085 C162.989375,11.1894799 162.989375,10.7665038 162.984063,10.3448751 C162.967657,9.42222899 162.883151,8.50210017 162.731248,7.59213408 C162.583214,6.68166923 162.298861,5.79922691 161.887944,4.97507758 C161.047124,3.32106257 159.713826,1.97470725 158.075568,1.12536509 C157.256457,0.709081593 156.380395,0.418507954 155.47632,0.263242894 C154.575757,0.111694714 153.664962,0.0304393278 152.752027,0.0201986844 C152.336981,0.0134887062 151.91131,0.00543123235 151.496264,0.00274999106 C151.006708,1.38343748e-16 150.509252,1.38343748e-16 150.019697,1.38343748e-16 L150.019697,1.38343748e-16 Z" fill="#A6A6A6"></path>
                            <path d="M11.503096,53.7968789 C11.0880772,53.7968789 10.6830838,53.7915164 10.2713205,53.7821665 C9.41831954,53.7709475 8.56731222,53.6959887 7.72527794,53.5579047 C6.94012346,53.4214064 6.17951982,53.1674946 5.46855526,52.8045446 C4.76410988,52.444602 4.12159905,51.972635 3.56563654,51.4067242 C3.00162658,50.8474795 2.53206253,50.1988511 2.17555236,49.4865429 C1.81511375,48.7696053 1.56566879,48.0011347 1.43590678,47.2079003 C1.29577508,46.355561 1.21995803,45.4937116 1.20910938,44.6297837 C1.20047338,44.3397971 1.18916756,43.3742753 1.18916756,43.3742753 L1.18916756,11.6111085 C1.18916756,11.6111085 1.20120893,10.6604229 1.20917749,10.38112 C1.21956499,9.51856063 1.29494116,8.65804862 1.43465361,7.80703213 C1.56465514,7.01162482 1.81429321,6.24093816 2.17492577,5.52165205 C2.53012568,4.80983591 2.99708281,4.16072313 3.55769522,3.59947705 C4.11767752,3.03289834 4.76224361,2.5585011 5.46788781,2.19358537 C6.17721836,1.8318015 6.93638456,1.57968087 7.71995195,1.4456703 C8.5647516,1.3061992 9.41871329,1.23079437 10.2746714,1.22008853 L11.5037635,1.20329984 L151.489589,1.20329984 L152.733365,1.22076228 C153.581538,1.23093615 154.427742,1.30566826 155.264778,1.44432281 C156.056278,1.58001433 156.823356,1.83389415 157.540789,2.19761411 C158.95445,2.93302503 160.104719,4.09651449 160.830373,5.52500704 C161.185249,6.23932762 161.431037,7.00372778 161.559394,7.79226468 C161.70077,8.65026379 161.779894,9.51753803 161.796135,10.38717 C161.800085,10.7765687 161.800085,11.1948424 161.800085,11.6111085 C161.810846,12.1267318 161.810846,12.617509 161.810846,13.1123149 L161.810846,41.8891426 C161.810846,42.3886785 161.810846,42.8761144 161.800085,43.3675378 C161.800085,43.8146864 161.800085,44.2242975 161.794773,44.6458712 C161.778883,45.4999849 161.701078,46.3517789 161.561982,47.1944254 C161.43488,47.9933819 161.186793,48.7678508 160.826423,49.4906679 C160.467392,50.1952447 160.000525,50.8382545 159.443027,51.3959992 C158.886564,51.9649512 158.242919,52.4396795 157.536839,52.8019321 C156.821393,53.1676723 156.055444,53.422523 155.264778,53.5579047 C154.422808,53.6967256 153.571719,53.7716892 152.718654,53.7821665 C152.319681,53.7915164 151.901911,53.7968789 151.496264,53.7968789 L150.019697,53.7996289 L11.503096,53.7968789 Z" fill="#000000"></path>
                        </g>
                        <g id="_Group_" transform="translate(13.582736, 11.990511)" fill="#FFFFFF">
                            <g id="_Group_2" transform="translate(0.000000, -0.000000)">
                                <g id="_Group_3" transform="translate(0.000000, -0.000000)">
                                    <path d="M20.1561082,15.923012 C20.1858807,13.5903721 21.3973546,11.4357225 23.3660883,10.2139481 C22.118461,8.41530646 20.103682,7.31581271 17.9295435,7.2471477 C15.6421725,7.00479098 13.424666,8.62878446 12.2590636,8.62878446 C11.0709041,8.62878446 9.27627597,7.27121012 7.3437578,7.31134624 C4.8010678,7.39427004 2.48805566,8.81819763 1.25098526,11.0621553 C-1.38340617,15.6662178 0.58161282,22.4326396 3.10513914,26.1542162 C4.36771277,27.9765666 5.84329889,30.0121787 7.77407351,29.9399914 C9.66345251,29.860888 10.3690989,28.7238354 12.6497409,28.7238354 C14.9092151,28.7238354 15.5712592,29.9399914 17.5412091,29.8940941 C19.5686008,29.8608742 20.8459537,28.063645 22.0642304,26.2240385 C22.9713874,24.9255473 23.6694434,23.4904318 24.1325409,21.9718511 C21.7246153,20.9438099 20.1589187,18.5621156 20.1561082,15.923012 L20.1561082,15.923012 Z" id="_Path_"></path>
                                    <path d="M16.4352279,4.7995869 C17.540646,3.46005513 18.0852436,1.73831397 17.9533674,-2.44248272e-15 C16.2645343,0.179052588 14.7045256,0.993818823 13.5841734,2.28195633 C12.4778771,3.55287711 11.91743,5.21558173 12.0262728,6.90385256 C13.7377511,6.92164056 15.3627637,6.14606945 16.4352279,4.7995869 L16.4352279,4.7995869 Z" id="_Path_2"></path>
                                </g>
                            </g>
                            <g id="Group" transform="translate(33.312251, 12.582268)">
                                <path d="M10.7269041,12.7442973 L4.2793196,12.7442973 L2.73094037,17.3594011 L0,17.3594011 L6.10704784,0.284706575 L8.9443991,0.284706575 L15.0514469,17.3594011 L12.2739348,17.3594011 L10.7269041,12.7442973 Z M4.9470847,10.614663 L10.0578586,10.614663 L7.53841867,3.12469109 L7.46791397,3.12469109 L4.9470847,10.614663 Z" id="Shape"></path>
                                <path d="M28.2405944,11.1356626 C28.2405944,15.004185 26.1893924,17.4896407 23.0939688,17.4896407 C21.4939714,17.5741267 19.9868613,16.7281828 19.2137173,15.3116477 L19.155145,15.3116477 L19.155145,21.4776502 L16.6237318,21.4776502 L16.6237318,4.91057654 L19.0740428,4.91057654 L19.0740428,6.98112731 L19.1206009,6.98112731 C19.9280927,5.57347277 21.436828,4.72789303 23.0474106,4.78032321 C26.1773646,4.78033696 28.2405944,7.27787885 28.2405944,11.1356626 Z M25.6386765,11.1356626 C25.6386765,8.61529575 24.3483559,6.95830239 22.3796319,6.95830239 C20.4454928,6.95830239 19.1445339,8.65019314 19.1445339,11.1356626 C19.1445339,13.6439569 20.4454928,15.3237614 22.3796319,15.3237614 C24.3483696,15.3237614 25.6386765,13.678868 25.6386765,11.1356626 Z" id="Shape"></path>
                                <path d="M41.8141668,11.1356626 C41.8141668,15.004185 39.7629648,17.4896407 36.6675412,17.4896407 C35.0675438,17.5741267 33.5604337,16.7281828 32.7872897,15.3116477 L32.7287174,15.3116477 L32.7287174,21.4776502 L30.1973043,21.4776502 L30.1973043,4.91057654 L32.6475607,4.91057654 L32.6475607,6.98112731 L32.6941189,6.98112731 C33.5016165,5.57347362 35.0103576,4.72789886 36.6209422,4.78033696 C39.7509915,4.78033696 41.8141668,7.27787885 41.8141668,11.1356626 Z M39.2122625,11.1356626 C39.2122625,8.61529575 37.9219284,6.95830239 35.9532043,6.95830239 C34.0190652,6.95830239 32.7181063,8.65019314 32.7181063,11.1356626 C32.7181063,13.6439569 34.0190652,15.3237614 35.9532043,15.3237614 C37.921942,15.3237614 39.2122625,13.678868 39.2122625,11.1356626 L39.2122625,11.1356626 Z" id="Shape"></path>
                                <path d="M50.7851822,12.6019578 C50.9727498,14.295196 52.6022857,15.4069487 54.8290548,15.4069487 C56.9627348,15.4069487 58.4978058,14.295141 58.4978058,12.768401 C58.4978058,11.4430841 57.5719684,10.6495329 55.3797706,10.1056947 L53.1875728,9.57260889 C50.0815109,8.81528885 48.6395426,7.34897987 48.6395426,4.96959135 C48.6395426,2.02355342 51.182929,0 54.7944699,0 C58.3687424,0 60.8190398,2.02355342 60.9015177,4.96959135 L58.3461308,4.96959135 C58.1931617,3.26561439 56.7977516,2.23706273 54.7585228,2.23706273 C52.7192941,2.23706273 51.3238976,3.27771435 51.3238976,4.79235442 C51.3238976,5.99950425 52.21515,6.70982694 54.3953746,7.25359643 L56.259009,7.71551242 C59.7295541,8.54400223 61.1715224,9.95125516 61.1715224,12.4487695 C61.1715224,15.6432142 58.6507476,17.6439427 54.64146,17.6439427 C50.890231,17.6439427 48.3574965,15.6902115 48.1938755,12.601834 L50.7851822,12.6019578 Z" id="Path"></path>
                                <path d="M66.6347653,1.96453862 L66.6347653,4.91057654 L68.9799458,4.91057654 L68.9799458,6.93412996 L66.6347653,6.93412996 L66.6347653,13.7970214 C66.6347653,14.8631792 67.1043381,15.3600063 68.1352515,15.3600063 C68.4136625,15.3551058 68.6916231,15.33537 68.9679725,15.3008815 L68.9679725,17.3123487 C68.5044726,17.3997703 68.033364,17.4393632 67.561924,17.4305159 C65.0651094,17.4305159 64.0913789,16.4838589 64.0913789,14.0695593 L64.0913789,6.93412996 L62.2982492,6.93412996 L62.2982492,4.91057654 L64.0913516,4.91057654 L64.0913516,1.96453862 L66.6347653,1.96453862 Z" id="Path"></path>
                                <path d="M70.3381557,11.1356626 C70.3381557,7.21880904 72.6234699,4.75751204 76.1871449,4.75751204 C79.7627796,4.75751204 82.0374554,7.21875404 82.0374554,11.1356626 C82.0374554,15.0632685 79.7747529,17.5138131 76.1871449,17.5138131 C72.6008037,17.5138131 70.3381557,15.0632548 70.3381557,11.1356626 Z M79.4581491,11.1356626 C79.4581491,8.44878379 78.2383333,6.86297395 76.1871313,6.86297395 C74.1359293,6.86297395 72.9174483,8.46087 72.9174483,11.1356626 C72.9174483,13.83328 74.1359293,15.4070174 76.1871313,15.4070174 C78.2383333,15.4070174 79.4581491,13.83328 79.4581491,11.1356626 L79.4581491,11.1356626 Z" id="Shape"></path>
                                <path d="M84.1245091,4.91057654 L86.5388729,4.91057654 L86.5388729,7.02944465 L86.5974452,7.02944465 C86.9341352,5.66543314 88.1722672,4.72667303 89.5638327,4.78030946 C89.8555555,4.77928128 90.1464734,4.81126164 90.4311386,4.87565165 L90.4311386,7.26577889 C90.0628564,7.15218132 89.6786747,7.10002495 89.2937462,7.11136689 C88.549535,7.08089072 87.8293037,7.38028127 87.3221637,7.93092744 C86.8150237,8.48157361 86.5716415,9.22846228 86.6559222,9.97548258 L86.6559222,17.3593736 L84.1245091,17.3593736 L84.1245091,4.91057654 Z" id="Path"></path>
                                <path d="M102.10246,13.7030267 C101.761923,15.9629006 99.581685,17.5137993 96.7922132,17.5137993 C93.2046052,17.5137993 90.9778225,15.0874135 90.9778225,11.1947324 C90.9778225,7.28996506 93.2165785,4.75749829 96.6858023,4.75749829 C100.097816,4.75749829 102.243469,7.1234531 102.243469,10.8979808 L102.243469,11.773468 L93.5331822,11.773468 L93.5331822,11.92788 C93.4518585,12.8546705 93.7688902,13.7720645 94.4036346,14.4467067 C95.038379,15.1213489 95.9296577,15.4882154 96.8507582,15.4539873 C98.0791995,15.5701739 99.2373793,14.858116 99.6987615,13.703013 L102.10246,13.7030267 Z M93.5451315,9.98759629 L99.7107211,9.98759629 C99.7566601,9.1547993 99.4563491,8.34042463 98.882141,7.74066322 C98.307933,7.14090181 97.5118908,6.81013343 96.6858023,6.82804906 C95.853179,6.82303339 95.0530663,7.15395686 94.4633042,7.74726553 C93.8735422,8.3405742 93.5429982,9.14710679 93.5451315,9.98759629 L93.5451315,9.98759629 Z" id="Shape"></path>
                            </g>
                        </g>
                    </g>
                    <g id="_Group_4" transform="translate(49.000000, 12.030361)" fill="#FFFFFF">
                        <g id="Group" transform="translate(0.000000, -0.000000)">
                            <path d="M2.95909817,0.658214606 C4.04228975,0.58020015 5.10325195,0.993813747 5.84996203,1.78521103 C6.59667211,2.57660831 6.95042273,3.66237164 6.81384639,4.74365195 C6.81384639,7.37039233 5.39932753,8.88029437 2.95909817,8.88029437 L0,8.88029437 L0,0.658214606 L2.95909817,0.658214606 Z M1.27239011,7.71751478 L2.81696941,7.71751478 C3.59107404,7.76395487 4.3448213,7.45785022 4.86892382,6.88419463 C5.39302634,6.31053904 5.63168664,5.53040554 5.5186377,4.76040797 C5.6234618,3.99360583 5.38136453,3.21990996 4.85856149,2.65093252 C4.33575846,2.08195508 3.58696028,1.7772388 2.81696941,1.82012608 L1.27239011,1.82012608 L1.27239011,7.71751478 Z" id="Shape"></path>
                            <path d="M8.25115638,5.77505663 C8.14514625,4.66288277 8.67650423,3.58653845 9.62238025,2.99743955 C10.5682563,2.40834065 11.7651111,2.40834065 12.7109871,2.99743955 C13.6568631,3.58653845 14.1882211,4.66288277 14.082211,5.77505663 C14.1902381,6.88842562 13.6593651,7.96685756 12.7126504,8.55722467 C11.7659357,9.14759178 10.5674316,9.14759178 9.62071695,8.55722467 C8.67400226,7.96685756 8.14312927,6.88842562 8.25115638,5.77505663 Z M12.8272437,5.77505663 C12.8272437,4.4300691 12.2252148,3.6435283 11.1686951,3.6435283 C10.1081389,3.6435283 9.5115331,4.4300691 9.5115331,5.77507041 C9.5115331,7.13083361 10.1081801,7.91131138 11.1686951,7.91131138 C12.2252422,7.91131138 12.8272437,7.125432 12.8272437,5.77505663 L12.8272437,5.77505663 Z" id="Shape"></path>
                            <polygon id="Path" points="21.8332669 8.88017036 20.5675769 8.88017036 19.2898185 4.31028285 19.1932857 4.31028285 17.9208819 8.88017036 16.6672464 8.88017036 14.9631155 2.67530318 16.2006599 2.67530318 17.3081438 7.40998118 17.3993221 7.40998118 18.6703804 2.67530318 19.8408832 2.67530318 21.1119415 7.40998118 21.2084743 7.40998118 22.31059 2.67530318 23.5306978 2.67530318"></polygon>
                            <path d="M24.963985,2.67530318 L26.1385106,2.67530318 L26.1385106,3.66100086 L26.2296888,3.66100086 C26.546753,2.93526669 27.2876403,2.49132797 28.074603,2.55553071 C28.6839454,2.50955055 29.2810579,2.74415982 29.6973459,3.19311666 C30.113634,3.6420735 30.3039225,4.25665775 30.2144837,4.86334175 L30.2144837,8.88010146 L28.9943759,8.88010146 L28.9943759,5.17084778 C28.9943759,4.17371302 28.5626489,3.67782578 27.6602988,3.67782578 C27.2469911,3.65850553 26.845887,3.82130274 26.5621435,4.12353699 C26.2784001,4.42577123 26.1403161,4.83729965 26.1840928,5.25023218 L26.1840928,8.88017036 L24.963985,8.88017036 L24.963985,2.67530318 Z" id="Path"></path>
                            <polygon id="Path" points="32.1586217 0.253093729 33.3787295 0.253093729 33.3787295 8.88015658 32.1586217 8.88015658"></polygon>
                            <path d="M35.0748149,5.77505663 C34.9688862,4.66281001 35.500328,3.58643845 36.4462742,2.99733046 C37.3922204,2.40822248 38.5891368,2.40822248 39.535083,2.99733046 C40.4810292,3.58643845 41.012471,4.66281001 40.9065422,5.77505663 C41.0144321,6.88846548 40.4834619,7.96686694 39.5367002,8.55720805 C38.5899385,9.14754916 37.3914186,9.14754916 36.4446569,8.55720805 C35.4978952,7.96686694 34.966925,6.88846548 35.0748149,5.77505663 L35.0748149,5.77505663 Z M39.6509022,5.77505663 C39.6509022,4.4300691 39.0488733,3.6435283 37.9923536,3.6435283 C36.9317974,3.6435283 36.3351916,4.4300691 36.3351916,5.77507041 C36.3351916,7.13083361 36.9318386,7.91131138 37.9923536,7.91131138 C39.048887,7.91131138 39.6509022,7.125432 39.6509022,5.77505663 L39.6509022,5.77505663 Z" id="Shape"></path>
                            <path d="M42.1910144,7.125432 C42.1910144,6.00852476 43.0196228,5.3646306 44.4904468,5.27312014 L46.1650865,5.17623562 L46.1650865,4.64066306 C46.1650865,3.98531803 45.7333594,3.61526629 44.8993965,3.61526629 C44.218285,3.61526629 43.7463302,3.86623454 43.6109015,4.30492258 L42.4296759,4.30492258 C42.5543681,3.23915152 43.553251,2.55555827 44.9557015,2.55555827 C46.5056491,2.55555827 47.3798398,3.32997301 47.3798398,4.64066306 L47.3798398,8.88018414 L46.2053142,8.88018414 L46.2053142,8.0081959 L46.1087815,8.0081959 C45.7098662,8.6449885 45.000465,9.01715803 44.251799,8.98241515 C43.7269662,9.03720543 43.2035323,8.86661212 42.8108998,8.51280901 C42.4182673,8.15900591 42.1930822,7.65501498 42.1910144,7.125432 L42.1910144,7.125432 Z M46.1650865,6.59523349 L46.1650865,6.07648586 L44.6553666,6.17337038 C43.8039671,6.23055581 43.4178222,6.52122315 43.4178222,7.06823279 C43.4178222,7.62667951 43.9004999,7.95165811 44.5642433,7.95165811 C44.9571652,7.99157749 45.3494064,7.86974522 45.6511746,7.6140513 C45.9529429,7.35835738 46.1383984,6.99069631 46.1650865,6.59523349 Z" id="Shape"></path>
                            <path d="M48.9834014,5.77505663 C48.9834014,3.81442317 49.9876526,2.57236941 51.5496547,2.57236941 C52.338388,2.53589493 53.0771099,2.96006302 53.4455194,3.66095952 L53.5366977,3.66095952 L53.5366977,0.253093729 L54.7568055,0.253093729 L54.7568055,8.88015658 L53.5876482,8.88015658 L53.5876482,7.89983295 L53.4911154,7.89983295 C53.0948576,8.59491425 52.3470346,9.01191246 51.5496685,8.98241515 C49.9769298,8.98248405 48.9834014,7.74040273 48.9834014,5.77505663 Z M50.2437781,5.77505663 C50.2437781,7.09112074 50.8618845,7.88304938 51.8956268,7.88304938 C52.9239733,7.88304938 53.55953,7.07969743 53.55953,5.78044447 C53.55953,4.48725453 52.9173008,3.67245172 51.8956268,3.67245172 C50.8685433,3.67245172 50.243737,4.46975441 50.243737,5.77505663 L50.2437781,5.77505663 Z" id="Shape"></path>
                            <path d="M59.8048476,5.77505663 C59.8048476,3.81442317 60.8090988,2.57236941 62.3711009,2.57236941 C63.1598342,2.53589493 63.898556,2.96006302 64.2669656,3.66095952 L64.3581438,3.66095952 L64.3581438,0.253093729 L65.5782517,0.253093729 L65.5782517,8.88015658 L64.4090944,8.88015658 L64.4090944,7.89983295 L64.3125479,7.89983295 C63.9162901,8.59491425 63.168467,9.01191246 62.3711009,8.98241515 C60.7983622,8.98248405 59.8048476,7.74040273 59.8048476,5.77505663 Z M61.0652243,5.77505663 C61.0652243,7.09112074 61.6833306,7.88304938 62.717073,7.88304938 C63.7454195,7.88304938 64.3809762,7.07969743 64.3809762,5.78044447 C64.3809762,4.48725453 63.738747,3.67245172 62.717073,3.67245172 C61.6899209,3.67245172 61.0652243,4.46975441 61.0652243,5.77505663 L61.0652243,5.77505663 Z" id="Shape"></path>
                            <path d="M67.4204886,0.840491441 C67.4012351,0.515962215 67.5812142,0.212489043 67.874626,0.0747442262 C68.1680377,-0.0630005903 68.5154893,-0.00713454671 68.7513428,0.215709791 C68.9871964,0.438554129 69.0637101,0.78326829 68.9444083,1.08551949 C68.8251065,1.38777069 68.5341384,1.5863768 68.2102148,1.58665795 C68.0057565,1.59712163 67.8058947,1.52341353 67.6568323,1.38257307 C67.5077698,1.2417326 67.422411,1.04595226 67.4204886,0.840491441 Z M67.6014995,2.67530318 L68.8175846,2.67530318 L68.8175846,8.88017036 L67.6014995,8.88017036 L67.6014995,2.67530318 Z" id="Shape"></path>
                        </g>
                    </g>
                </g>
            </g>
        </g>
    </g>
</svg>