<?xml version="1.0" encoding="UTF-8"?>
<svg width="34px" height="31px" viewBox="0 0 34 31" version="1.1" xmlns="http://www.w3.org/2000/svg" xmlns:xlink="http://www.w3.org/1999/xlink">
    <title>briefcase-outline</title>
    <g id="Page-1" stroke="none" stroke-width="1" fill="none" fill-rule="evenodd">
        <g id="Desktop-HD:-Main-Page" transform="translate(-564.000000, -2197.000000)" fill="#6256B8" fill-rule="nonzero">
            <g id="Pengacara-Section" transform="translate(100.000000, 1605.000000)">
                <g id="Lawyer-2" transform="translate(437.000000, 176.000000)">
                    <g id="Group" transform="translate(27.000000, 414.000000)">
                        <g id="briefcase-outline" transform="translate(0.000000, 2.000000)">
                            <path d="M28.9,6.88888889 L23.8,6.88888889 L23.8,4.30555556 C23.8,1.92766288 21.8972102,0 19.55,0 L14.45,0 C12.1027898,0 10.2,1.92766288 10.2,4.30555556 L10.2,6.88888889 L5.1,6.88888889 C2.28334778,6.88888889 0,9.20208435 0,12.0555556 L0,25.8333333 C0,28.6868045 2.28334778,31 5.1,31 L28.9,31 C31.7166522,31 34,28.6868045 34,25.8333333 L34,12.0555556 C34,9.20208435 31.7166522,6.88888889 28.9,6.88888889 Z M22.1,10.3333333 L22.1,27.5555556 L11.9,27.5555556 L11.9,10.3333333 L22.1,10.3333333 Z M13.6,4.30555556 C13.6,3.82997702 13.980558,3.44444444 14.45,3.44444444 L19.55,3.44444444 C20.019442,3.44444444 20.4,3.82997702 20.4,4.30555556 L20.4,6.88888889 L13.6,6.88888889 L13.6,4.30555556 Z M3.4,25.8333333 L3.4,12.0555556 C3.4,11.1043985 4.16111593,10.3333333 5.1,10.3333333 L8.5,10.3333333 L8.5,27.5555556 L5.1,27.5555556 C4.16111593,27.5555556 3.4,26.7844904 3.4,25.8333333 Z M30.6,25.8333333 C30.6,26.7844904 29.8388841,27.5555556 28.9,27.5555556 L25.5,27.5555556 L25.5,10.3333333 L28.9,10.3333333 C29.8388841,10.3333333 30.6,11.1043985 30.6,12.0555556 L30.6,25.8333333 Z" id="Shape"></path>
                        </g>
                    </g>
                </g>
            </g>
        </g>
    </g>
</svg>