<?xml version="1.0" encoding="UTF-8"?>
<svg width="34px" height="34px" viewBox="0 0 34 34" version="1.1" xmlns="http://www.w3.org/2000/svg" xmlns:xlink="http://www.w3.org/1999/xlink">
    <title>clock-outline</title>
    <g id="Page-1" stroke="none" stroke-width="1" fill="none" fill-rule="evenodd">
        <g id="Desktop-HD:-Main-Page" transform="translate(-564.000000, -2250.000000)" fill="#6256B8" fill-rule="nonzero">
            <g id="Pengacara-Section" transform="translate(100.000000, 1605.000000)">
                <g id="Lawyer-2" transform="translate(437.000000, 176.000000)">
                    <g id="Group" transform="translate(27.000000, 414.000000)">
                        <g id="clock-outline" transform="translate(0.000000, 55.000000)">
                            <path d="M17,0 C7.61115925,0 0,7.61115925 0,17 C0,26.3888407 7.61115925,34 17,34 C26.3888407,34 34,26.3888407 34,17 C34,12.4913197 32.2089337,8.16730315 29.0208153,4.97918472 C25.8326968,1.79106629 21.5086803,0 17,0 Z M17,30.6 C9.4889274,30.6 3.4,24.5110726 3.4,17 C3.4,9.4889274 9.4889274,3.4 17,3.4 C24.5110726,3.4 30.6,9.4889274 30.6,17 C30.6,20.6069443 29.167147,24.0661575 26.6166522,26.6166522 C24.0661575,29.167147 20.6069443,30.6 17,30.6 Z" id="Shape"></path>
                            <path d="M24.3333333,13.6666667 L19.3333333,13.6666667 L19.3333333,8.66666667 C19.3333333,7.74619208 18.5871412,7 17.6666667,7 C16.7461921,7 16,7.74619208 16,8.66666667 L16,15.3333333 C16,16.2538079 16.7461921,17 17.6666667,17 L24.3333333,17 C25.2538079,17 26,16.2538079 26,15.3333333 C26,14.4128588 25.2538079,13.6666667 24.3333333,13.6666667 Z" id="Path"></path>
                        </g>
                    </g>
                </g>
            </g>
        </g>
    </g>
</svg>