<?xml version="1.0" encoding="UTF-8"?>
<svg width="58px" height="58px" viewBox="0 0 58 58" version="1.1" xmlns="http://www.w3.org/2000/svg" xmlns:xlink="http://www.w3.org/1999/xlink">
    <title>clock-outline</title>
    <g id="Page-1" stroke="none" stroke-width="1" fill="none" fill-rule="evenodd">
        <g id="Desktop-HD:-Main-Page" transform="translate(-645.000000, -1370.000000)" fill-rule="nonzero">
            <g id="Produk-Section" transform="translate(0.000000, 902.000000)">
                <g id="clock-outline" transform="translate(645.000000, 468.000000)">
                    <rect id="Rectangle" fill="#000000" opacity="0" transform="translate(29.000000, 29.000000) rotate(180.000000) translate(-29.000000, -29.000000) " x="0" y="0" width="58" height="58"></rect>
                    <path d="M29,5 C15.745166,5 5,15.745166 5,29 C5,42.254834 15.745166,53 29,53 C42.254834,53 53,42.254834 53,29 C53,22.6348042 50.4714358,16.5303103 45.9705627,12.0294373 C41.4696897,7.52856417 35.3651958,5 29,5 Z M29,48.2 C18.3961328,48.2 9.8,39.6038672 9.8,29 C9.8,18.3961328 18.3961328,9.8 29,9.8 C39.6038672,9.8 48.2,18.3961328 48.2,29 C48.2,34.0921566 46.1771487,38.9757517 42.5764502,42.5764502 C38.9757517,46.1771487 34.0921566,48.2 29,48.2 Z" id="Shape" fill="#FFFFFF"></path>
                    <path d="M38.6666667,27 L31.6666667,27 L31.6666667,19.5 C31.6666667,18.1192881 30.6219977,17 29.3333333,17 C28.0446689,17 27,18.1192881 27,19.5 L27,29.5 C27,30.8807119 28.0446689,32 29.3333333,32 L38.6666667,32 C39.9553311,32 41,30.8807119 41,29.5 C41,28.1192881 39.9553311,27 38.6666667,27 Z" id="Path" fill="#FFFFFF"></path>
                </g>
            </g>
        </g>
    </g>
</svg>