<?xml version="1.0" encoding="UTF-8"?>
<svg width="18px" height="18px" viewBox="0 0 18 18" version="1.1" xmlns="http://www.w3.org/2000/svg" xmlns:xlink="http://www.w3.org/1999/xlink">
    <title>arrow-ios-downward-outline</title>
    <g id="Page-1" stroke="none" stroke-width="1" fill="none" fill-rule="evenodd">
        <g id="Mobile-(Forced-Portrait)" transform="translate(-72.000000, -1185.000000)" fill-rule="nonzero">
            <g id="arrow-ios-downward-outline" transform="translate(72.000000, 1185.000000)">
                <rect id="Rectangle" fill="#000000" opacity="0" x="0" y="0" width="18" height="18"></rect>
                <path d="M9.4913801,11.998311 C9.30811736,11.9986369 9.13051472,11.9405419 8.98940249,11.8341107 L4.28336245,8.26453873 C3.9498146,8.01219695 3.90416367,7.56151814 4.18139825,7.25791943 C4.45863282,6.95432073 4.95376981,6.91276878 5.28731766,7.16511056 L9.4913801,10.363447 L13.6954425,7.27933687 C13.857482,7.15956309 14.0652909,7.10352194 14.2728599,7.12362103 C14.4804289,7.14372012 14.6706335,7.23830127 14.8013619,7.38642402 C14.94657,7.53481789 15.0172553,7.73158535 14.9964158,7.92939794 C14.9755763,8.12721054 14.865098,8.30816596 14.6915543,8.42873904 L9.9855143,11.8769455 C9.84034553,11.9665532 9.66636719,12.0092845 9.4913801,11.998311 Z" id="Path" fill="#FFFFFF"></path>
            </g>
        </g>
    </g>
</svg>