<?xml version="1.0" encoding="UTF-8"?>
<svg width="58px" height="58px" viewBox="0 0 58 58" version="1.1" xmlns="http://www.w3.org/2000/svg" xmlns:xlink="http://www.w3.org/1999/xlink">
    <title>grid-outline</title>
    <g id="Page-1" stroke="none" stroke-width="1" fill="none" fill-rule="evenodd">
        <g id="Desktop-HD:-Main-Page" transform="translate(-645.000000, -1255.000000)" fill-rule="nonzero">
            <g id="Produk-Section" transform="translate(0.000000, 902.000000)">
                <g id="grid-outline" transform="translate(645.000000, 353.000000)">
                    <rect id="Rectangle" fill="#000000" opacity="0" x="0" y="0" width="58" height="58"></rect>
                    <path d="M21.25,7 L11.75,7 C9.12664744,7 7,9.12664744 7,11.75 L7,21.25 C7,23.8733526 9.12664744,26 11.75,26 L21.25,26 C23.8733526,26 26,23.8733526 26,21.25 L26,11.75 C26,9.12664744 23.8733526,7 21.25,7 Z M11.75,21.25 L11.75,11.75 L21.25,11.75 L21.25,21.25 L11.75,21.25 Z" id="Shape" fill="#FFFFFF"></path>
                    <path d="M46.25,7 L36.75,7 C34.1266474,7 32,9.12664744 32,11.75 L32,21.25 C32,23.8733526 34.1266474,26 36.75,26 L46.25,26 C48.8733526,26 51,23.8733526 51,21.25 L51,11.75 C51,9.12664744 48.8733526,7 46.25,7 Z M36.75,21.25 L36.75,11.75 L46.25,11.75 L46.25,21.25 L36.75,21.25 Z" id="Shape" fill="#FFFFFF"></path>
                    <path d="M21.25,32 L11.75,32 C9.12664744,32 7,34.1266474 7,36.75 L7,46.25 C7,48.8733526 9.12664744,51 11.75,51 L21.25,51 C23.8733526,51 26,48.8733526 26,46.25 L26,36.75 C26,34.1266474 23.8733526,32 21.25,32 Z M11.75,46.25 L11.75,36.75 L21.25,36.75 L21.25,46.25 L11.75,46.25 Z" id="Shape" fill="#FFFFFF"></path>
                    <path d="M46.25,32 L36.75,32 C34.1266474,32 32,34.1266474 32,36.75 L32,46.25 C32,48.8733526 34.1266474,51 36.75,51 L46.25,51 C48.8733526,51 51,48.8733526 51,46.25 L51,36.75 C51,34.1266474 48.8733526,32 46.25,32 Z M36.75,46.25 L36.75,36.75 L46.25,36.75 L46.25,46.25 L36.75,46.25 Z" id="Shape" fill="#FFFFFF"></path>
                </g>
            </g>
        </g>
    </g>
</svg>