<?xml version="1.0" encoding="UTF-8"?>
<svg width="40px" height="40px" viewBox="0 0 40 40" version="1.1" xmlns="http://www.w3.org/2000/svg" xmlns:xlink="http://www.w3.org/1999/xlink">
    <title>Instagram Icon</title>
    <defs>
        <polygon id="path-1" points="0 0 40 0 40 40 0 40"></polygon>
    </defs>
    <g id="Page-1" stroke="none" stroke-width="1" fill="none" fill-rule="evenodd">
        <g id="Desktop-HD:-Main-Page" transform="translate(-1242.000000, -2531.000000)">
            <g id="Footer" transform="translate(0.000000, 2404.000000)">
                <g id="Instagram-Icon" transform="translate(1242.000000, 127.000000)">
                    <g id="Group-3">
                        <mask id="mask-2" fill="white">
                            <use xlink:href="#path-1"></use>
                        </mask>
                        <g id="Clip-2"></g>
                        <path d="M20.0000397,0 C14.5683261,0 13.8872382,0.0230258783 11.7540256,0.120369764 C9.62525876,0.217475451 8.1713874,0.555638263 6.89924004,1.05013885 C5.58406323,1.56123395 4.46871136,2.24518193 3.35677327,3.35717306 C2.24491457,4.46924358 1.56104803,5.58472828 1.05001379,6.90006173 C0.555572095,8.17236061 0.217449553,9.62640512 0.12035543,11.7554255 C0.0230231363,13.8888922 0,14.5700612 0,20.0024217 C0,25.4347028 0.0230231363,26.1158718 0.12035543,28.2493385 C0.217449553,30.3783589 0.555572095,31.8324034 1.05001379,33.1047022 C1.56104803,34.4200357 2.24491457,35.5355204 3.35677327,36.6475909 C4.46871136,37.759582 5.58406323,38.44353 6.89924004,38.9547045 C8.1713874,39.4491257 9.62525876,39.7872885 11.7540256,39.8843942 C13.8872382,39.9817381 14.5683261,40.004764 20.0000397,40.004764 C25.4316739,40.004764 26.1127618,39.9817381 28.2459744,39.8843942 C30.3747412,39.7872885 31.8286126,39.4491257 33.10076,38.9547045 C34.4159368,38.44353 35.5312886,37.759582 36.6432267,36.6475909 C37.7550854,35.5355204 38.438952,34.4200357 38.9500656,33.1047022 C39.4444279,31.8324034 39.7825504,30.3783589 39.8796446,28.2493385 C39.9769769,26.1158718 40,25.4347028 40,20.0024217 C40,14.5700612 39.9769769,13.8888922 39.8796446,11.7554255 C39.7825504,9.62640512 39.4444279,8.17236061 38.9500656,6.90006173 C38.438952,5.58472828 37.7550854,4.46924358 36.6432267,3.35717306 C35.5312886,2.24518193 34.4159368,1.56123395 33.10076,1.05013885 C31.8286126,0.555638263 30.3747412,0.217475451 28.2459744,0.120369764 C26.1127618,0.0230258783 25.4316739,0 20.0000397,0 Z M20.0000397,3.60402635 C25.3402165,3.60402635 25.972797,3.62443204 28.0817163,3.72066434 C30.0316965,3.80959187 31.0906814,4.13544774 31.7954275,4.4093763 C32.728976,4.77223238 33.3952179,5.20567469 34.0950419,5.90566139 C34.7949452,6.60556869 35.2283359,7.27188997 35.5911488,8.20554963 C35.8650447,8.91037971 36.1908618,9.96949071 36.2797787,11.9197032 C36.3759996,14.0288737 36.3964028,14.6615295 36.3964028,20.0024217 C36.3964028,25.3432345 36.3759996,25.9758903 36.2797787,28.0850608 C36.1908618,30.0352733 35.8650447,31.0943843 35.5911488,31.7992143 C35.2283359,32.732874 34.7949452,33.3991953 34.0950419,34.0991026 C33.3952179,34.7990893 32.728976,35.2325316 31.7954275,35.5953877 C31.0906814,35.8693162 30.0316965,36.1951721 28.0817163,36.2840996 C25.9731145,36.3803319 25.3406134,36.4007376 20.0000397,36.4007376 C14.6593866,36.4007376 14.0269649,36.3803319 11.9182837,36.2840996 C9.96830349,36.1951721 8.90931861,35.8693162 8.20457247,35.5953877 C7.27102399,35.2325316 6.60478206,34.7990893 5.90495811,34.0991026 C5.20513416,33.3991953 4.77166408,32.732874 4.40885121,31.7992143 C4.13495527,31.0943843 3.8091382,30.0352733 3.72022126,28.0850608 C3.62400043,25.9758903 3.60359717,25.3432345 3.60359717,20.0024217 C3.60359717,14.6615295 3.62400043,14.0288737 3.72022126,11.9197032 C3.8091382,9.96949071 4.13495527,8.91037971 4.40885121,8.20554963 C4.77166408,7.27188997 5.20505477,6.60556869 5.90495811,5.90566139 C6.60478206,5.20567469 7.27102399,4.77223238 8.20457247,4.4093763 C8.90931861,4.13544774 9.96830349,3.80959187 11.9182837,3.72066434 C14.027203,3.62443204 14.6597835,3.60402635 20.0000397,3.60402635 L20.0000397,3.60402635 Z" id="Fill-1" fill="#FFFFFF" mask="url(#mask-2)"></path>
                    </g>
                    <path d="M20.0000387,26.4912321 C16.4149747,26.4912321 13.5087679,23.5850253 13.5087679,20.0000387 C13.5087679,16.4149747 16.4149747,13.5087679 20.0000387,13.5087679 C23.5850253,13.5087679 26.4912321,16.4149747 26.4912321,20.0000387 C26.4912321,23.5850253 23.5850253,26.4912321 20.0000387,26.4912321 Z M20.0000387,10 C14.477117,10 10,14.477117 10,20.0000387 C10,25.522883 14.477117,30 20.0000387,30 C25.522883,30 30,25.522883 30,20.0000387 C30,14.477117 25.522883,10 20.0000387,10 L20.0000387,10 Z" id="Fill-4" fill="#FFFFFF"></path>
                    <path d="M33,9.50004135 C33,10.8807661 31.8806834,12 30.4999587,12 C29.1193166,12 28,10.8807661 28,9.50004135 C28,8.11931658 29.1193166,7 30.4999587,7 C31.8806834,7 33,8.11931658 33,9.50004135" id="Fill-5" fill="#FFFFFF"></path>
                </g>
            </g>
        </g>
    </g>
</svg>