<?xml version="1.0" encoding="UTF-8"?>
<svg width="209px" height="61px" viewBox="0 0 209 61" version="1.1" xmlns="http://www.w3.org/2000/svg" xmlns:xlink="http://www.w3.org/1999/xlink">
    <title>Takum Logo Banner White BG</title>
    <defs>
        <linearGradient x1="46.5159299%" y1="-3.04180297%" x2="53.508724%" y2="103.080003%" id="linearGradient-1">
            <stop stop-color="#7F6DB0" offset="6%"></stop>
            <stop stop-color="#8062A9" offset="51%"></stop>
            <stop stop-color="#9772B1" offset="82%"></stop>
        </linearGradient>
    </defs>
    <g id="Page-1" stroke="none" stroke-width="1" fill="none" fill-rule="evenodd">
        <g id="Desktop-HD:-Main-Page" transform="translate(-101.000000, -51.000000)" fill-rule="nonzero">
            <g id="Header-/-Navigation" transform="translate(101.000000, 51.000000)">
                <g id="Takum-Logo-Banner-White-BG" transform="translate(0.000000, 0.000000)">
                    <polygon id="Path" fill="#6259A5" points="75 20.0252268 75 16 99 16 99 20.0252268 89.3249534 20.0252268 89.3249534 47 84.6601226 47 84.6601226 20.0252268"></polygon>
                    <path d="M108.134018,47.9974459 C106.710498,48.0179817 105.299633,47.7372653 104.000879,47.1750857 C102.811167,46.6613435 101.798003,45.8313505 101.080127,44.7823788 C100.360042,43.7368977 100,42.4541291 100,40.9340732 C100,39.6250968 100.260847,38.5484495 100.782541,37.7041314 C101.293545,36.8685601 102.022299,36.176305 102.896504,35.6960426 C103.826176,35.1867645 104.827941,34.8109395 105.87016,34.5804377 C106.974855,34.3281887 108.093523,34.1366336 109.220758,34.006698 C110.659457,33.845201 111.828493,33.7120367 112.727864,33.6072052 C113.627235,33.5023738 114.27972,33.3288353 114.685318,33.0865896 C115.099473,32.8336147 115.334474,32.3805384 115.295921,31.9093608 L115.295921,31.8031128 C115.295921,30.4856365 114.912366,29.4642382 114.145255,28.738918 C113.378144,28.0135977 112.237765,27.6516459 110.724118,27.6530626 C109.14728,27.6530626 107.907705,27.9873899 107.005395,28.6560445 C106.18591,29.2233748 105.539561,29.9924936 105.13391,30.8830043 L100.725228,29.9161468 C101.177811,28.6082084 101.966477,27.4319895 103.017743,26.4970834 C104.02309,25.6292598 105.211181,24.9812184 106.500601,24.5973676 C107.843798,24.1956375 109.242824,23.9942721 110.64917,24.000124 C111.685341,24.0067711 112.718042,24.1164342 113.730839,24.3274975 C114.808919,24.542873 115.837898,24.9438181 116.768421,25.5111012 C117.748452,26.1226346 118.548605,26.967155 119.091796,27.963307 C119.698724,29.0257878 120.001454,30.4020547 119.999989,32.0921076 L119.999989,47.48958 L115.430386,47.48958 L115.430386,44.3148873 L115.243017,44.3148873 C114.893362,44.9582585 114.432693,45.5395861 113.880734,46.0339813 C113.204483,46.6426682 112.412562,47.1196153 111.548541,47.438581 C110.458252,47.8348552 109.298887,48.0246118 108.134018,47.9974459 L108.134018,47.9974459 Z M109.150219,44.385011 C110.30703,44.4164679 111.452932,44.1618891 112.478773,43.6455243 C113.353158,43.1976751 114.083523,42.5274177 114.590532,41.7075593 C115.070809,40.9292283 115.322982,40.0398485 115.320192,39.1342306 L115.320192,36.1337847 C115.038344,36.3510501 114.708929,36.5036495 114.356872,36.5800267 C113.824773,36.7277257 113.283666,36.8434049 112.736681,36.9263954 C112.130487,37.0220187 111.541928,37.1070172 110.973209,37.1835158 L109.533774,37.3726374 C108.688373,37.4683118 107.856633,37.6543269 107.053891,37.9272524 C106.369974,38.1507581 105.756288,38.538324 105.270579,39.0534821 C104.807531,39.5975674 104.571719,40.2886189 104.609277,40.9914472 C104.609277,42.109177 105.036919,42.9520785 105.892203,43.5201516 C106.747487,44.0882247 107.833492,44.3729695 109.150219,44.3743862 L109.150219,44.385011 Z" id="Shape" fill="#6259A5"></path>
                    <path d="M126,47 L126,16 L130.695158,16 L130.695158,47 L126,47 Z M130.317158,39.1157547 L130.286211,33.5925213 L131.101895,33.5925213 L140.711053,23.7542618 L146.336842,23.7542618 L135.372632,34.9477591 L134.634316,34.9477591 L130.317158,39.1157547 Z M141.228316,47 L132.594,35.9535331 L135.828,32.7891806 L147,47 L141.228316,47 Z" id="Shape" fill="#6259A5"></path>
                    <path d="M166.286046,37.8656995 L166.286046,24 L171,24 L171,47.6965564 L166.378997,47.6965564 L166.378997,43.5878793 L166.128914,43.5878793 C165.564912,44.8639498 164.644132,45.9571919 163.473166,46.7410501 C162.251522,47.5792897 160.734794,47.9984095 158.922983,47.9984095 C157.485189,48.0266616 156.065736,47.678081 154.810999,46.9886131 C153.594711,46.2849336 152.620549,45.2405679 152.013611,43.9896262 C151.339346,42.6634993 151.001475,41.0232135 151,39.0687688 L151,24 L155.700675,24 L155.700675,38.5128378 C155.700675,40.1285121 156.156579,41.4141024 157.068386,42.3696087 C157.980193,43.325115 159.160525,43.8028682 160.609384,43.8028682 C161.526668,43.7928519 162.428463,43.5695859 163.240788,43.1513866 C164.13525,42.7043473 164.890542,42.0292352 165.427354,41.1969419 C166.008668,40.3181656 166.294899,39.2077515 166.286046,37.8656995 Z" id="Path" fill="#6259A5"></path>
                    <path d="M177,48 L177,24.3168747 L181.396683,24.3168747 L181.396683,28.1714596 L181.687926,28.1714596 C182.139371,26.9163464 182.983456,25.8424956 184.093373,25.1112317 C185.206566,24.3747513 186.53981,24.0072346 188.093103,24.0086815 C189.646397,24.0101284 190.966696,24.3798155 192.054001,25.1177428 C193.134842,25.8696716 193.962558,26.9347868 194.427088,28.1714596 L194.673026,28.1714596 C195.232691,26.9037758 196.169655,25.8420956 197.354615,25.1329354 C198.579991,24.3776451 200.040518,24 201.736196,24 C203.871975,24 205.616553,24.6728161 206.969932,26.0184482 C208.323311,27.3640803 209,29.3941038 209,32.1085187 L209,48 L204.417785,48 L204.417785,32.5491047 C204.417785,30.9444746 203.986314,29.7869416 203.123374,29.0765057 C202.249766,28.3518666 201.146625,27.9667868 200.01463,27.9913185 C198.521742,27.9913185 197.361806,28.4507144 196.534821,29.3695062 C195.707836,30.2882981 195.294344,31.4675348 195.294344,32.9072165 L195.294344,48 L190.729387,48 L190.729387,32.2561042 C190.729387,30.9712425 190.330996,29.9381443 189.534214,29.1568095 C188.737432,28.3754748 187.700465,27.9855308 186.423313,27.9869778 C185.57501,27.9807898 184.742635,28.2187557 184.024338,28.6728161 C183.282932,29.1424102 182.676147,29.798492 182.263939,30.5762344 C181.805727,31.4439701 181.576219,32.4153695 181.597317,33.3977211 L181.597317,48 L177,48 Z" id="Path" fill="#6259A5"></path>
                    <polygon id="Rectangle" fill="url(#linearGradient-1)" transform="translate(33.124749, 28.898448) rotate(-86.230000) translate(-33.124749, -28.898448) " points="5.95401854 1.72771816 60.2954789 1.72771816 60.2954789 56.0691785 5.95401854 56.0691785"></polygon>
                    <rect id="Rectangle" fill="#FFFFFF" x="-2.27373675e-13" y="37" width="30" height="10" rx="5"></rect>
                    <path d="M13.3149369,15.9354873 L37.1998536,15.9354873 C39.858607,15.9354873 42.0139524,18.0908328 42.0139524,20.7495862 C42.0139524,23.4083395 39.858607,25.563685 37.1998536,25.563685 L13.3149369,25.563685 C10.6561836,25.563685 8.5008381,23.4083395 8.5008381,20.7495862 C8.5008381,18.0908328 10.6561836,15.9354873 13.3149369,15.9354873 Z" id="Rectangle" fill="#FFFFFF" transform="translate(25.257395, 20.749586) rotate(-45.000000) translate(-25.257395, -20.749586) "></path>
                    <path d="M46.7427339,20.5097468 C49.4014873,20.5097468 51.5568327,22.6650922 51.5568327,25.3238456 L51.5568327,59.1448003 C51.5568327,61.8035536 49.4014873,63.9588991 46.7427339,63.9588991 C44.0839805,63.9588991 41.9286351,61.8035536 41.9286351,59.1448003 L41.9286351,25.3238456 C41.9286351,22.6650922 44.0839805,20.5097468 46.7427339,20.5097468 Z" id="Rectangle" fill="#FFFFFF" transform="translate(46.742734, 42.234323) rotate(-45.000000) translate(-46.742734, -42.234323) "></path>
                </g>
            </g>
        </g>
    </g>
</svg>