<?xml version="1.0" encoding="UTF-8"?>
<svg width="58px" height="58px" viewBox="0 0 58 58" version="1.1" xmlns="http://www.w3.org/2000/svg" xmlns:xlink="http://www.w3.org/1999/xlink">
    <title>phone-call-outline</title>
    <g id="Page-1" stroke="none" stroke-width="1" fill="none" fill-rule="evenodd">
        <g id="Desktop-HD:-Main-Page" transform="translate(-645.000000, -1132.000000)" fill-rule="nonzero">
            <g id="Produk-Section" transform="translate(0.000000, 902.000000)">
                <g id="phone-call-outline" transform="translate(645.000000, 230.000000)">
                    <rect id="Rectangle" fill="#000000" opacity="0" x="0" y="0" width="58" height="58"></rect>
                    <path d="M31.3333333,19 C35.1993265,19 38.3333333,22.3578644 38.3333333,26.5 C38.3333333,27.8807119 39.3780022,29 40.6666667,29 C41.9553311,29 43,27.8807119 43,26.5 C43,19.5964406 37.7766554,14 31.3333333,14 C30.0446689,14 29,15.1192882 29,16.5 C29,17.8807118 30.0446689,19 31.3333333,19 Z" id="Path" fill="#FFFFFF"></path>
                    <path d="M31.4,9.8 C40.6783838,9.8 48.2,17.3216162 48.2,26.6 C48.2,27.9254834 49.2745166,29 50.6,29 C51.9254834,29 53,27.9254834 53,26.6 C53,14.6706494 43.3293506,5 31.4,5 C30.0745166,5 29,6.0745166 29,7.4 C29,8.7254834 30.0745166,9.8 31.4,9.8 L31.4,9.8 Z" id="Path" fill="#FFFFFF"></path>
                    <path d="M52.3999917,38.384 C52.131634,37.6007492 51.4785156,37.0111283 50.671992,36.824 L36.2719945,33.536 C35.4777941,33.3559235 34.6464618,33.5908653 34.0639949,34.16 C33.727995,34.472 33.703995,34.496 32.1439952,37.472 C26.9676728,35.0867789 22.8199836,30.9220553 20.4559973,25.736 C23.5039967,24.2 23.5279967,24.2 23.8399967,23.84 C24.4091313,23.257533 24.644073,22.4262006 24.4639966,21.632 L21.1759972,7.4 C20.9888689,6.59347619 20.3992481,5.9403577 19.6159974,5.672 C19.0555176,5.47181471 18.4767435,5.32712116 17.8879977,5.24 C17.2814025,5.0993487 16.6623975,5.01895842 16.0399981,5 C9.94277549,5 5,9.94277636 5,16.04 C5.02644394,36.4414809 21.5585162,52.9735561 41.9599935,53 C44.887983,53 47.6960497,51.8368605 49.766451,49.7664589 C51.8368523,47.6960572 53,44.88799 53,41.96 C53.000733,41.3491318 52.9525793,40.7391843 52.8559916,40.136 C52.7551274,39.5398725 52.6025513,38.9536589 52.3999917,38.384 L52.3999917,38.384 Z M41.9599935,48.2 C24.2040045,48.1867641 9.81323508,33.7959922 9.79999916,16.04 C9.8131572,12.5992081 12.5992068,9.81315805 16.0399981,9.8 L16.8319979,9.8 L19.3999975,20.936 L18.1039977,21.608 C16.0399981,22.688 14.4079983,23.552 15.2719982,25.424 C18.1212243,33.490071 24.4498757,39.8451663 32.5039952,42.728 C34.5199948,43.544 35.3119947,42.032 36.3919945,39.944 L37.0879944,38.624 L48.1999924,41.168 L48.1999924,41.96 C48.1868344,45.4007919 45.4007848,48.186842 41.9599935,48.2 Z" id="Shape" fill="#FFFFFF"></path>
                </g>
            </g>
        </g>
    </g>
</svg>