<?xml version="1.0" encoding="UTF-8"?>
<svg width="163px" height="48px" viewBox="0 0 163 48" version="1.1" xmlns="http://www.w3.org/2000/svg" xmlns:xlink="http://www.w3.org/1999/xlink">
    <title>Takum Banner Logo (Purple Background)</title>
    <g id="Page-1" stroke="none" stroke-width="1" fill="none" fill-rule="evenodd">
        <g id="Desktop-HD:-Main-Page" transform="translate(-101.000000, -2700.000000)" fill-rule="nonzero">
            <g id="Footer" transform="translate(0.000000, 2404.000000)">
                <g id="Takum-Banner-Logo-(Purple-Background)" transform="translate(101.000000, 296.000000)">
                    <polygon id="Path" fill="#FFFFFF" points="60 14.6355708 60 11.3887506 79 11.3887506 79 14.6355708 71.3405881 14.6355708 71.3405881 36.3887506 67.6475971 36.3887506 67.6475971 14.6355708"></polygon>
                    <path d="M85.1038785,36.386767 C84.0355574,36.4021655 82.9768881,36.1794096 82.0023142,35.7341631 C81.1099494,35.3276611 80.3497599,34.6713694 79.8105421,33.8419483 C79.2701807,33.0144197 79,31.9990712 79,30.7959029 C79,29.7598102 79.1957432,28.9076127 79.5872295,28.2393104 C79.9706941,27.5779315 80.5175607,27.0299916 81.1735763,26.64985 C81.8712151,26.2467416 82.6229534,25.9492653 83.4050484,25.7668164 C84.2336966,25.5655335 85.0732528,25.4138954 85.9193832,25.3126848 C86.9990033,25.1848552 87.8762635,25.0794518 88.5511639,24.9964747 C89.2260643,24.9134976 89.7156979,24.7761368 90.0200647,24.5843924 C90.330852,24.3841554 90.5071997,24.0255324 90.4782692,23.6525817 L90.4782692,23.5684833 C90.4782692,22.5256626 90.190444,21.7171963 89.6147937,21.1430843 C89.0391433,20.5689724 88.1833873,20.282477 87.0475255,20.2835983 C85.8642443,20.2835983 84.9340507,20.5482281 84.2569447,21.0774876 C83.6446283,21.5297781 83.1621047,22.1400214 82.8591731,22.8452367 L79.5508378,22.0799409 C79.8904622,21.0446698 80.4822879,20.1136585 81.2711722,19.3736532 C82.0251611,18.6838126 82.9166329,18.1674778 83.884757,17.8598814 C84.8929758,17.5432657 85.9427015,17.3844649 86.9979005,17.3888385 C87.7704207,17.3945746 88.5403325,17.4808066 89.2955393,17.6462713 C90.1045455,17.8167473 90.8767055,18.134107 91.5749823,18.5831279 C92.3104117,19.0671744 92.9108568,19.7356367 93.318475,20.5241199 C93.7739225,21.3651042 94.0010948,22.4544593 94,23.7921851 L94,35.9763666 L90.5791734,35.9763666 L90.5791734,33.4719152 L90.436915,33.4719152 C90.174529,33.9811621 89.828837,34.4412998 89.4146394,34.8326279 C88.9067411,35.3138512 88.3125874,35.6912956 87.66453,35.9444092 C86.8468802,36.2578582 85.9774587,36.4080526 85.1038785,36.386767 L85.1038785,36.386767 Z M85.868104,33.5274202 C86.7360976,33.5507772 87.5954914,33.3475188 88.3642429,32.9370491 C89.0209673,32.5820004 89.5695755,32.050929 89.9505897,31.4014117 C90.3101097,30.7850394 90.4987457,30.0811683 90.4964854,29.3645475 L90.4964854,26.9963355 C90.2849797,27.1683074 90.0377827,27.2890942 89.7735938,27.349549 C89.3743451,27.4666391 88.9682801,27.558205 88.5577805,27.6237099 C88.1028844,27.6993985 87.6612217,27.7666772 87.2344464,27.8272281 L86.154275,27.9769233 C85.5198109,28.0531973 84.89566,28.2009981 84.2933364,28.4175991 C83.7805457,28.5945642 83.3201673,28.9006622 82.9551148,29.3073606 C82.6075283,29.7386153 82.430585,30.286163 82.4588645,30.842998 C82.4588645,31.7277136 82.779773,32.3948945 83.4215901,32.8445408 C84.0634071,33.2941872 84.8789117,33.5190103 85.868104,33.5190103 L85.868104,33.5274202 Z" id="Shape" fill="#FFFFFF"></path>
                    <path d="M99,36.3887506 L99,11.3887506 L102.353684,11.3887506 L102.353684,36.3887506 L99,36.3887506 Z M102.083684,30.0291769 L102.061579,25.5740376 L102.644211,25.5740376 L109.507895,17.6383209 L113.526316,17.6383209 L105.694737,26.6723532 L105.167368,26.6723532 L102.083684,30.0291769 Z M109.877368,36.3887506 L103.71,27.4767533 L106.02,24.9260486 L114,36.3887506 L109.877368,36.3887506 Z" id="Shape" fill="#FFFFFF"></path>
                    <path d="M129.464535,28.3657506 L129.464535,17.3887506 L133,17.3887506 L133,36.1433462 L129.534248,36.1433462 L129.534248,32.8958046 L129.346686,32.8958046 C128.922984,33.9055811 128.232545,34.7708797 127.354874,35.3920621 C126.438641,36.0556677 125.301095,36.3874705 123.942237,36.3874705 C122.864397,36.4100299 121.800295,36.1340481 120.859909,35.5880492 C119.947077,35.0312367 119.215855,34.2044214 118.760208,33.2138539 C118.254509,32.1640046 118.001107,30.8654464 118,29.3181794 L118,17.3887506 L121.525506,17.3887506 L121.525506,28.8780679 C121.525506,30.1571419 121.867434,31.1748998 122.551289,31.9313415 C123.235144,32.6877831 124.120394,33.066004 125.207038,33.066004 C125.895025,33.0582705 126.571415,32.8815071 127.180591,32.5502483 C127.851437,32.1963426 128.417907,31.6618794 128.820516,31.0029813 C129.256501,30.3118686 129.471174,29.4327918 129.464535,28.3657506 Z" id="Path" fill="#FFFFFF"></path>
                    <path d="M138,36.3835959 L138,17.6396097 L141.436826,17.6396097 L141.436826,20.6911561 L141.664374,20.6911561 C142.015465,19.6966031 142.675321,18.8459933 143.543757,18.2684757 C144.413498,17.6865742 145.454603,17.3956234 146.667071,17.3956234 C147.87954,17.3956234 148.911093,17.6882924 149.761731,18.2736303 C150.605531,18.8696252 151.252048,19.7126076 151.615831,20.6911561 L151.806297,20.6911561 C152.24413,19.6879445 152.976046,18.8476049 153.901429,18.2856578 C154.858819,17.6877197 155.999933,17.3887506 157.324771,17.3887506 C158.99346,17.3887506 160.356504,17.9213966 161.413902,18.9866887 C162.471301,20.0519808 163,21.6590828 163,23.8079946 L163,36.3767231 L159.419903,36.3767231 L159.419903,24.1567918 C159.419903,22.8876051 159.082794,21.9712248 158.408576,21.4076509 C157.72595,20.8341136 156.864114,20.5292768 155.979706,20.5485444 C154.813309,20.5485444 153.90761,20.9128056 153.262608,21.6413279 C152.617606,22.3698502 152.293981,23.3034127 152.291734,24.4420152 L152.291734,36.3887506 L148.725121,36.3887506 L148.725121,23.9248331 C148.725121,22.9076509 148.413857,22.0897815 147.79133,21.4712248 C147.168802,20.8526681 146.358617,20.5433898 145.360774,20.5433898 C144.698629,20.5392958 144.049049,20.7276354 143.488134,21.0863451 C142.908285,21.4586589 142.433652,21.9786153 142.111044,22.5949362 C141.753042,23.2818936 141.573726,24.0509181 141.59021,24.8286131 L141.59021,36.3853142 L138,36.3835959 Z" id="Path" fill="#FFFFFF"></path>
                    <polygon id="Rectangle" fill="#8379B7" transform="translate(25.830922, 22.545406) rotate(3.770000) translate(-25.830922, -22.545406) " points="4.6334117 1.34789616 47.0284318 1.34789616 47.0284318 43.7429162 4.6334117 43.7429162"></polygon>
                    <rect id="Rectangle" fill="#FFFFFF" x="-3.97903932e-13" y="28.3887506" width="24" height="9" rx="4.5"></rect>
                    <path d="M10.3869442,12.4354253 L29.0209948,12.4354253 C31.0952471,12.4354253 32.7767609,14.116939 32.7767609,16.1911914 C32.7767609,18.2654438 31.0952471,19.9469575 29.0209948,19.9469575 L10.3869442,19.9469575 C8.3126918,19.9469575 6.63117802,18.2654438 6.63117802,16.1911914 C6.63117802,14.116939 8.3126918,12.4354253 10.3869442,12.4354253 Z" id="Rectangle" fill="#FFFFFF" transform="translate(19.703969, 16.191191) rotate(-45.000000) translate(-19.703969, -16.191191) "></path>
                    <path d="M36.4659659,16.0023751 C38.5402182,16.0023751 40.221732,17.6838888 40.221732,19.7581412 L40.221732,46.1438887 C40.221732,48.2181411 38.5402182,49.8996549 36.4659659,49.8996549 C34.3917135,49.8996549 32.7101997,48.2181411 32.7101997,46.1438887 L32.7101997,19.7581412 C32.7101997,17.6838888 34.3917135,16.0023751 36.4659659,16.0023751 Z" id="Rectangle" fill="#FFFFFF" transform="translate(36.465966, 32.951015) rotate(-45.000000) translate(-36.465966, -32.951015) "></path>
                </g>
            </g>
        </g>
    </g>
</svg>