<?xml version="1.0" encoding="UTF-8"?>
<svg width="40px" height="33px" viewBox="0 0 40 33" version="1.1" xmlns="http://www.w3.org/2000/svg" xmlns:xlink="http://www.w3.org/1999/xlink">
    <title>Twitter Icon</title>
    <g id="Page-1" stroke="none" stroke-width="1" fill="none" fill-rule="evenodd">
        <g id="Desktop-HD:-Main-Page" transform="translate(-1300.000000, -2535.000000)" fill="#FFFFFF" fill-rule="nonzero">
            <g id="Footer" transform="translate(0.000000, 2404.000000)">
                <g id="Twitter-Icon" transform="translate(1300.000000, 131.000000)">
                    <path d="M35.904936,8.21526446 C35.9293114,8.57329186 35.9293114,8.93131926 35.9293114,9.29264645 C35.9293114,20.3024015 27.6741824,33 12.5793216,33 L12.5793216,32.9934004 C8.12025188,33 3.75380865,31.7031819 0,29.2580362 C0.648385131,29.3372312 1.30002031,29.3768287 1.95328052,29.3784786 C5.64858826,29.3817784 9.23826935,28.1229079 12.1454398,25.8048042 C8.6337599,25.7371584 5.55433679,23.4124552 4.47856998,20.0186194 C5.7087142,20.2595042 6.976234,20.2100073 8.18362787,19.8750785 C4.35506805,19.089728 1.60065001,15.6744436 1.60065001,11.708094 C1.60065001,11.6717963 1.60065001,11.6371485 1.60065001,11.6025007 C2.74141783,12.2476099 4.01868779,12.6056373 5.32520821,12.6452348 C1.71927686,10.1984393 0.607759496,5.32794671 2.78529352,1.51998708 C6.95185862,6.7254085 13.0993297,9.88990875 19.6985578,10.2248376 C19.0371725,7.33092028 19.9406866,4.2984117 22.0727199,2.26409011 C25.3780215,-0.890510765 30.5764778,-0.728820971 33.6835263,2.6254173 C35.52143,2.25749053 37.2829575,1.57278375 38.8949827,0.602644984 C38.2823482,2.53137324 37.0002031,4.16971982 35.2874264,5.21080411 C36.9140768,5.0161164 38.5033516,4.57394431 40,3.8991369 C38.8982328,5.57543109 37.5104611,7.03558892 35.904936,8.21526446 Z" id="white_background"></path>
                </g>
            </g>
        </g>
    </g>
</svg>